<?xml version="1.0" standalone="no"?>
<!DOCTYPE svg PUBLIC "-//W3C//DTD SVG 1.1//EN" "http://www.w3.org/Graphics/SVG/1.1/DTD/svg11.dtd" >
<svg>
<metadata>
Created by FontForge 20090914 at Sun Jan 22 10:55:34 2017
 By www-data
Copyright (c) 2016 by Pedro Azedo. All rights reserved.
</metadata>
<defs>
<font id="Irene-CAPSThin" horiz-adv-x="278" >
  <font-face 
    font-family="IreneCAPS"
    font-weight="250"
    font-variant="small-caps"
    font-stretch="normal"
    units-per-em="1000"
    panose-1="2 0 5 3 5 0 0 2 0 4"
    ascent="714"
    descent="-286"
    cap-height="721"
    bbox="-9.99902 -63.0068 963.998 756.003"
    underline-thickness="50"
    underline-position="-50"
    unicode-range="U+000D-U+005A"
  />
<missing-glyph 
 />
    <glyph glyph-name=".notdef" 
 />
    <glyph glyph-name="NULL" horiz-adv-x="0" 
 />
    <glyph glyph-name="NULL" horiz-adv-x="0" 
 />
    <glyph glyph-name="nonmarkingreturn" unicode="&#xd;" 
 />
    <glyph glyph-name="space" unicode=" " horiz-adv-x="500" 
 />
    <glyph glyph-name="A" unicode="A" horiz-adv-x="696" 
d="M243 257l-0.999023 -0.00195312c-2 0.666992 -3 2.33398 -3 5.00098l108 282c1.33301 1.33301 2.66602 2 3.99902 2c2 0 3 -0.666992 3 -2l108 -282c1.33301 -2 0.666016 -3.66699 -2.00098 -5c-2 -1.33301 -3.66699 -0.666016 -5 2.00098l-104 273l-104 -273
c-1.33301 -1.33301 -2.66602 -2 -3.99902 -2zM349.001 188.998c-43.333 0 -86.332 7.66699 -128.999 23c-40.667 14.667 -77 35 -109 61c-0.666992 0.666992 -1 2 -1 4l170 443c0 1.33301 1 2 3 2h135c1.33301 0 2.66602 -0.666992 3.99902 -2l169 -441
c0 -2 -0.333008 -3.33301 -1 -4c-34 -28 -71.5 -49.333 -112.5 -64s-83.833 -22 -128.5 -22zM118.002 276.998c33.333 -26 68.333 -45.333 105 -58c39.333 -14.667 81.333 -22 126 -22c43.333 0 85 7 125 21s76.333 34.333 109 61l-167 435h-130zM692.002 0.998047h-135.003
c-1.33301 0 -2.66602 0.666992 -3.99902 2l-21 55c-2 3.33301 -1.33301 5 2 5c3.33301 1.33301 5 0.666016 5 -2.00098l21 -53h126l-61 160c-38 -28.667 -79.667 -50.667 -125 -66c-48 -16.667 -98.333 -25 -151 -25c-55.333 0 -109 9.66699 -161 29l-39 -103
c-1.33301 -1.33301 -2.66602 -2 -3.99902 -2h-135c-1.33301 0 -2.33301 0.333008 -3 1s-1 2 -1 4l89 230c0 2 1.66699 3 5 3c2.66699 -1.33301 3.33398 -3 2.00098 -5l-86 -226h126l40 104c0 1.33301 0.666992 2 2 2c0.666992 0.666992 1.66699 0.666992 3 0
c52.667 -19.333 106.667 -29 162 -29c51.333 0 100.666 8 147.999 24c23.333 8 45.5 17.5 66.5 28.5s41.167 24.167 60.5 39.5h1c2.66699 1.33301 4.33398 1 5.00098 -1l1 -1l64 -169c1.33301 -1.33301 1.33301 -2.66602 0 -3.99902c-0.666992 -0.666992 -1.66699 -1 -3 -1z
" />
    <glyph glyph-name="B" unicode="B" horiz-adv-x="719" 
d="M616 371c23.333 -20.667 41.3301 -44.1709 53.9971 -70.5039s19 -54.166 19 -83.499s-6.33301 -57.166 -19 -83.499s-30.667 -49.833 -54 -70.5s-50 -36.334 -80 -47.001s-61.667 -16 -95 -16s-65 5.33301 -95 16s-56.667 26.334 -80 47.001s-41.166 44.167 -53.499 70.5
s-18.5 54.166 -18.5 83.499v319c0 36.667 8.66699 70.834 26 102.501s41.333 57.834 72 78.501c1.33301 0.666992 3.33301 0.333984 6 -0.999023c1.33301 -2 1 -4 -1 -6c-30 -19.333 -53.5 -44.333 -70.5 -75s-25.5 -63.667 -25.5 -99v-319
c0 -29.333 6.33301 -56.666 19 -81.999s29.834 -47.5 51.501 -66.5s47 -34 76 -45s60.167 -16.5 93.5 -16.5s64.5 5.5 93.5 16.5s54.333 26 76 45s38.834 41.167 51.501 66.5s19 52.666 19 81.999c0 28 -5.83301 54.667 -17.5 80s-29.167 48 -52.5 68c-2 1.33301 -2 3 0 5
c1.33301 2.66699 3 3 5 1zM318.997 6.99609c2.66699 0 4.00293 -1.33691 4.00293 -4.00391c0 -2 -1.33301 -3 -4 -3c-33.333 0 -65 5.33301 -95 16s-56.667 26.334 -80 47.001s-41.333 44.167 -54 70.5s-19 54.166 -19 83.499v319c0 29.333 5.66699 57.166 17 83.499
s27.666 49.833 48.999 70.5s45.5 36.5 72.5 47.5s55.5 16.5 85.5 16.5s58.5 -5.5 85.5 -16.5s51.167 -26.833 72.5 -47.5s37.666 -44.167 48.999 -70.5s17 -54.166 17 -83.499c0 -13.333 -1.33301 -26.666 -4 -39.999s-6.66699 -26.666 -12 -39.999
c-1.33301 -2.66699 -3 -3.33398 -5 -2.00098c-2.66699 1.33301 -3.33398 3 -2.00098 5c10 24.667 15 50.334 15 77.001c0 28.667 -5.66699 55.834 -17 81.501s-26.833 48 -46.5 67s-42.5 34 -68.5 45s-54 16.5 -84 16.5c-29.333 0 -57 -5.33301 -83 -16
s-49.333 -25.667 -70 -45c-20.667 -20 -36.334 -42.833 -47.001 -68.5s-16 -52.5 -16 -80.5v-319c0 -29.333 6.33301 -56.666 19 -81.999s29.834 -47.5 51.501 -66.5s47 -34 76 -45s60.167 -16.5 93.5 -16.5zM440 37.9922c35.333 19.333 61.3301 39.001 77.9971 59.001
c22 26 33 55.667 33 89c0 21.333 -5.16699 41.666 -15.5 60.999s-24.166 35.333 -41.499 48c-2.66699 1.33301 -3 3 -1 5c1.33301 2.66699 3 3 5 1c19.333 -13.333 34.166 -30 44.499 -50s15.5 -41.667 15.5 -65c0 -21.333 -3.66699 -40 -11 -56
s-16.666 -30.167 -27.999 -42.5s-23.666 -23 -36.999 -32s-26.333 -16.833 -39 -23.5c0 -0.666992 -0.666992 -1 -2 -1c-0.666992 0 -1.66699 0.666992 -3 2c-1.33301 2 -0.666016 3.66699 2.00098 5zM416.997 745.993c-2 0 -3 1.33008 -3 3.99707s1 4 3 4
c30 0 58.667 -5.5 86 -16.5s51.666 -26.833 72.999 -47.5s37.5 -44.167 48.5 -70.5s16.5 -54.166 16.5 -83.499s-5.5 -57 -16.5 -83s-27.167 -49.333 -48.5 -70s-45.666 -36.5 -72.999 -47.5s-56 -16.5 -86 -16.5h-44c-7.33301 0 -14.833 2.16699 -22.5 6.5
s-11.5 11.833 -11.5 22.5v57c0 12 4.66699 20 14 24c4 2.66699 7.83301 4.16699 11.5 4.5s6.5 0.5 8.5 0.5h68c36 0 71 -6.66699 105 -20c2 -1.33301 3 -3 3 -5c-1.33301 -2.66699 -3 -3.33398 -5 -2.00098c-34 13.333 -68.333 20 -103 20h-68
c-1.33301 0 -3.33301 -0.166992 -6 -0.5s-5.5 -1.16602 -8.5 -2.49902s-5.66699 -3.5 -8 -6.5s-3.5 -7.16699 -3.5 -12.5v-57c0 -5.33301 1.33301 -9.33301 4 -12s5.5 -4.66699 8.5 -6s6 -2.16602 9 -2.49902l4.5 -0.5h44c30 0 58.167 5.5 84.5 16.5s49.333 26 69 45
s35.167 41.167 46.5 66.5s17 52.333 17 81s-5.66699 55.834 -17 81.501s-26.833 48 -46.5 67s-42.667 34 -69 45s-54.5 16.5 -84.5 16.5z" />
    <glyph glyph-name="C" unicode="C" horiz-adv-x="677" 
d="M652 532l-122 -0.000976562c-2.66699 0 -4 1 -4 3c0 2.66699 1.33301 4 4 4h117c-22 55.333 -52 100.666 -90 135.999c-19.333 18 -40.333 31.833 -63 41.5s-45.667 14.5 -69 14.5c-2.66699 -0.666992 -4 0.333008 -4 3s1.33301 4 4 4c49.333 0 95.333 -19.333 138 -58
c19.333 -17.333 36.833 -38.166 52.5 -62.499s29.167 -51.166 40.5 -80.499c0 -2 -0.333008 -3.33301 -1 -4c0 -0.666992 -1 -1 -3 -1zM425 -16.001c-36 0 -70.168 10.1631 -102.501 30.4961s-61.166 49.5 -86.499 87.5c-23.333 36 -41.5 76.5 -54.5 121.5
s-19.5 90.833 -19.5 137.5c0 34 3.16699 67.333 9.5 100s16.166 64 29.499 94s28.833 57 46.5 81s37.167 44 58.5 60c1.33301 1.33301 3 1.33301 5 0c1.33301 -1.33301 1.33301 -3.33301 0 -6c-43.333 -32 -77.666 -78 -102.999 -138c-12.667 -30 -22.334 -61 -29.001 -93
s-10 -64.667 -10 -98c0 -46 6.33301 -91.167 19 -135.5s30.667 -84.166 54 -119.499c24.667 -37.333 52.667 -65.666 84 -84.999s64.333 -29 99 -29c48 0 92.333 18.667 133 56c38 34.667 67.667 80.334 89 137.001h-114c-12.667 -34 -28.667 -64.667 -48 -92
s-40.666 -49.666 -63.999 -66.999c-2 -2 -3.66699 -1.66699 -5 1s-1 4.33398 1 5.00098c23.333 17.333 44.333 39.666 63 66.999s34.334 58 47.001 92c1.33301 1.33301 2.66602 2 3.99902 2h122c2 0 3.33301 -0.666992 4 -2v-3c-11.333 -30 -24.833 -57.333 -40.5 -82
s-33.167 -45.667 -52.5 -63c-42.667 -39.333 -89 -59 -139 -59zM301.999 -16.0049c-36 0 -70 10.1602 -102 30.4932s-60.667 49.5 -86 87.5c-24 36 -42.5 76.5 -55.5 121.5s-19.5 90.833 -19.5 137.5s6.5 92.5 19.5 137.5s31.5 85.5 55.5 121.5c25.333 38 54 67.167 86 87.5
s66 30.5 102 30.5c50 0 96 -19.333 138 -58c19.333 -17.333 36.833 -38.166 52.5 -62.499s29.167 -51.166 40.5 -80.499c1.33301 -2 0.666016 -3.66699 -2.00098 -5c-2 -1.33301 -3.66699 -0.666016 -5 2.00098c-22 58.667 -52.333 105.667 -91 141
c-41.333 37.333 -85.666 56 -132.999 56c-34.667 -0.666992 -67.5 -10.667 -98.5 -30s-58.833 -47.666 -83.5 -84.999c-23.333 -35.333 -41.333 -75.166 -54 -119.499s-19 -89.5 -19 -135.5s6.33301 -91.167 19 -135.5s30.667 -84.166 54 -119.499
c24.667 -37.333 52.5 -65.666 83.5 -84.999s63.833 -29 98.5 -29c2.66699 0 4 -1.33301 4 -4s-1.33301 -4 -4 -4z" />
    <glyph glyph-name="D" unicode="D" horiz-adv-x="722" 
d="M261 9c3.33301 0 4.33301 -1.33105 3 -3.99805c0 -2.66699 -1 -4 -3 -4h-1c-68.667 6 -129.334 35.333 -182.001 88c0 0.666992 -0.166992 1.16699 -0.5 1.5s-0.5 0.833008 -0.5 1.5v572c0 0.666992 0.166992 1.16699 0.5 1.5s0.5 0.833008 0.5 1.5
c14 14 28.833 26.333 44.5 37s31.834 19.667 48.501 27c37.333 16.667 74.666 25 111.999 25c44 0 85.833 -10.167 125.5 -30.5s74.834 -49.5 105.501 -87.5c29.333 -36 52 -76.667 68 -122s24 -91.333 24 -138c0 -34 -4.16699 -67.333 -12.5 -100s-20.166 -64 -35.499 -94
c-32.667 -61.333 -75.667 -108.666 -129 -141.999c-2 -0.666992 -3.66699 -0.333984 -5 0.999023c-1.33301 2 -1 4 1 6c25.333 15.333 48.833 34.666 70.5 57.999s40.167 50 55.5 80s27 61 35 93s12 64.667 12 98c0 46 -7.83301 91.167 -23.5 135.5
s-37.834 84.166 -66.501 119.499c-30 37.333 -64.333 65.833 -103 85.5s-79.334 29.5 -122.001 29.5c-38 0 -74.333 -8 -109 -24c-32 -14 -61.667 -34.667 -89 -62v-569c50.667 -50.667 109.334 -78.667 176.001 -84zM637 638.002c29.333 -36 51.834 -76.667 67.501 -122
s23.5 -91.333 23.5 -138c0 -47.333 -7.83301 -93.5 -23.5 -138.5s-38.167 -85.5 -67.5 -121.5c-31.333 -38 -66.666 -67.167 -105.999 -87.5s-81 -30.5 -125 -30.5c-40 0 -77.333 8 -112 24c-33.333 14.667 -64.333 36.334 -93 65.001c-0.666992 0.666992 -1 1.66699 -1 3
v572c0 1.33301 0.333008 2.33301 1 3c9.33301 8.66699 18.666 16.834 27.999 24.501s19 14.834 29 21.501c2.66699 1.33301 4.66699 0.666016 6 -2.00098c1.33301 -1.33301 1 -3 -1 -5c-20 -12 -38.667 -26.667 -56 -44v-569c26.667 -26 56.667 -46.667 90 -62
c36 -15.333 72.333 -23 109 -23c42.667 0 83.334 9.83301 122.001 29.5s73 48.167 103 85.5c28.667 35.333 50.834 75.166 66.501 119.499s23.5 89.5 23.5 135.5s-7.83301 91.167 -23.5 135.5s-37.834 84.166 -66.501 119.499c-30 37.333 -64.333 65.833 -103 85.5
s-79.334 29.5 -122.001 29.5c-2.66699 0 -4 1.33301 -4 4s1.33301 4 4 4c44 0 85.667 -10.167 125 -30.5s74.666 -49.5 105.999 -87.5z" />
    <glyph glyph-name="E" unicode="E" horiz-adv-x="521" 
d="M487 722c2 0 2.99902 -1.00098 2.99902 -3.00098v-108c0 -2.66699 -1 -4 -3 -4h-233c-2.66699 0 -4 1.33301 -4 4s1.33301 4 4 4h229v100h-191c-23.333 0 -43.333 -14.667 -60 -44c-7.33301 -13.333 -13.166 -28.833 -17.499 -46.5s-6.5 -35.5 -6.5 -53.5v-128
c0 -2.66699 -1.33301 -4 -4 -4s-4 1.33301 -4 4v128c0 19.333 2.16699 37.833 6.5 55.5s10.833 33.834 19.5 48.501c17.333 31.333 39.333 47 66 47h195zM168.999 8.99902c2.66699 0 4.00098 -1.33398 4.00098 -4.00098s-1.33301 -4 -4 -4c-26.667 0 -48.667 16 -66 48
c-8.66699 14 -15.167 30 -19.5 48s-6.5 36.333 -6.5 55v187c0 2.66699 1.33301 4 4 4s4 -1.33301 4 -4v-187c0 -18 2.16699 -35.667 6.5 -53s10.166 -32.666 17.499 -45.999c17.333 -29.333 37.333 -44 60 -44zM487 115.998c2 0 3.00098 -1.33398 3.00098 -4.00098v-107
c0 -2.66699 -1 -4 -3 -4h-195c-26.667 0 -48.667 16 -66 48c-8.66699 14 -15.167 30 -19.5 48s-6.5 36.333 -6.5 55v128c0 1.33301 0.666992 2.66602 2 3.99902c-1.33301 0 -2 1 -2 3c0 2.66699 1.33301 4 4 4h129v100h-252c-2.66699 0 -4 1 -4 3v177
c0 19.333 2.16699 37.833 6.5 55.5s10.833 33.834 19.5 48.501c17.333 31.333 39.333 47 66 47c2.66699 0 4 -1 4 -3c0 -2.66699 -1.33301 -4 -4 -4c-22 0 -42 -14.667 -60 -44c-7.33301 -13.333 -13.166 -28.833 -17.499 -46.5s-6.5 -35.5 -6.5 -53.5v-173h252
c2.66699 0 4 -1.33301 4 -4v-107c0 -2.66699 -1.33301 -4 -4 -4h-131c1.33301 -1.33301 2 -2.33301 2 -3v-128c0 -18 2.16699 -35.667 6.5 -53s10.166 -32.666 17.499 -45.999c8 -14.667 17.167 -25.667 27.5 -33s21.166 -11 32.499 -11h191v100h-229c-2.66699 0 -4 1 -4 3
c0 2.66699 1.33301 4 4 4h233z" />
    <glyph glyph-name="F" unicode="F" horiz-adv-x="593" 
d="M204 1l-123.001 -0.000976562c-2.66699 0 -4 1.33301 -4 4v285c0 2.66699 1.33301 4 4 4h252v100h-252c-2.66699 0 -4 1 -4 3v177c0 19.333 2.16699 37.833 6.5 55.5s10.833 33.834 19.5 48.501c17.333 31.333 39.333 47 66 47c2.66699 0 4 -1 4 -3
c0 -2.66699 -1.33301 -4 -4 -4c-22 0 -42 -14.667 -60 -44c-7.33301 -13.333 -13.166 -28.833 -17.499 -46.5s-6.5 -35.5 -6.5 -53.5v-173h252c2.66699 0 4 -1.33301 4 -4v-107c0 -2.66699 -1.33301 -4 -4 -4h-252v-277h115v236c0 2.66699 1.33301 4 4 4s4 -1.33301 4 -4
v-240c0 -2.66699 -1.33301 -4 -4 -4zM203.999 441.999c-2.66699 0 -4.00098 1.33203 -4.00098 3.99902v128c0 19.333 2.16699 37.833 6.5 55.5s10.833 33.834 19.5 48.501c17.333 31.333 39.333 47 66 47h195c2 0 3 -1 3 -3v-108c0 -2.66699 -1 -4 -3 -4h-233
c-2.66699 0 -4 1.33301 -4 4s1.33301 4 4 4h229v100h-191c-23.333 0 -43.333 -14.667 -60 -44c-7.33301 -13.333 -13.166 -28.833 -17.499 -46.5s-6.5 -35.5 -6.5 -53.5v-128c0 -2.66699 -1.33301 -4 -4 -4z" />
    <glyph glyph-name="G" unicode="G" horiz-adv-x="742" 
d="M702 199c1.33301 -1.33301 1.66406 -2.99707 0.99707 -4.99707c-11.333 -30.667 -25.666 -58.834 -42.999 -84.501s-37 -47.834 -59 -66.501c-46.667 -38.667 -97.334 -58 -152.001 -58c-39.333 0 -76.333 10 -111 30c-16.667 9.33301 -32.5 20.833 -47.5 34.5
s-29.167 29.167 -42.5 46.5c-26.667 36 -47 76.833 -61 122.5s-21 93.834 -21 144.501c0 35.333 3.5 69.666 10.5 102.999s17.5 65 31.5 95c26 58.667 62.667 104.334 110 137.001c1.33301 1.33301 3 1 5 -1c1.33301 -2.66699 1 -4.66699 -1 -6
c-22 -15.333 -42 -34.333 -60 -57s-33.667 -48 -47 -76c-13.333 -30 -23.666 -61.333 -30.999 -94s-11 -66.334 -11 -101.001c0 -50 7 -97.333 21 -142s34 -84.667 60 -120c26.667 -35.333 56.667 -62.166 90 -80.499s68.333 -27.5 105 -27.5
c53.333 0 102.333 18.667 147 56c20.667 17.333 39.334 38.166 56.001 62.499s30.667 51.166 42 80.499h-324c-1.33301 0 -2.66602 0.666992 -3.99902 2c-19.333 28.667 -33.333 64.334 -42 107.001c0 2.66699 1 4 3 4c0 0.666992 0.666992 1 2 1h368
c2.66699 0 4 -1.33301 4 -4s-1.33301 -4 -4 -4h-364c7.33301 -38.667 20.333 -71.334 39 -98.001h327h1l1 -1h1zM326.998 -6.99707c2.66699 0 4 -1.33301 4 -4s-1.33301 -4 -4 -4c-39.333 0 -76.333 10 -111 30c-34 18.667 -64 45.667 -90 81
c-26.667 36 -47.167 76.833 -61.5 122.5s-21.5 93.834 -21.5 144.501c0 50 7.16699 97.833 21.5 143.5s34.833 86.5 61.5 122.5s56.667 63.333 90 82c17.333 9.33301 35.333 16.666 54 21.999s37.667 8 57 8c53.333 0 103 -19 149 -57
c42.667 -35.333 76.334 -83.333 101.001 -144h114c-11.333 28.667 -25.333 54.5 -42 77.5s-35.334 43.167 -56.001 60.5c-44 36.667 -92 55 -144 55c-2.66699 0 -4 1.33301 -4 4s1.33301 4 4 4c54 0 103.667 -19 149 -57c44.667 -36.667 78.667 -85.334 102 -146.001
c1.33301 -1.33301 1.33301 -2.66602 0 -3.99902c-0.666992 -0.666992 -1.66699 -1 -3 -1h-123h-1h-1v1h-1v1c-11.333 30 -25.5 57 -42.5 81s-36.167 44.667 -57.5 62c-44 36.667 -92 55 -144 55c-37.333 0 -72.666 -9.33301 -105.999 -28s-63 -45.334 -89 -80.001
c-26 -35.333 -46 -75.333 -60 -120s-21 -92 -21 -142s7 -97.333 21 -142s34 -84.667 60 -120s55.667 -62.166 89 -80.499s68.666 -27.5 105.999 -27.5zM454.998 26.0029c-2 0 -3.00098 0.666992 -3.00098 2c-2 2 -1.66699 3.66699 1 5c20.667 14.667 39.667 32.5 57 53.5
s32.666 44.833 45.999 71.5c0.666992 1.33301 2.33398 2 5.00098 2c2.66699 -1.33301 3.33398 -3.33301 2.00098 -6c-26.667 -54 -62 -96.333 -106 -127c-0.666992 0 -1 -0.166992 -1 -0.5s-0.333008 -0.5 -1 -0.5z" />
    <glyph glyph-name="H" unicode="H" horiz-adv-x="722" 
d="M640 0h-122c-2.66699 -0 -4 1.33301 -4 4v205c0 2 1.33301 3 4 3s4 -1 4 -3v-201h115v243h-437c-2 0 -3 1 -3 3c0 2.66699 1 4 3 4h440c2.66699 0 4 -1.33301 4 -4v-250c0 -2.66699 -1.33301 -4 -4 -4zM200 0h-122c-2.66699 -0 -4 1.33301 -4 4v368
c0 2.66699 1.33301 4 4 4s4 -1.33301 4 -4v-364h115v246c0 2.66699 1 4 3 4c2.66699 0 4 -1.33301 4 -4v-250c0 -2.66699 -1.33301 -4 -4 -4zM640 358h-440.002c-17.333 0 -33.666 3.33301 -48.999 10s-28.666 15.667 -39.999 27s-20.333 24.833 -27 40.5
s-10 32.167 -10 49.5v235c0 2.66699 1.33301 4 4 4h122c2.66699 0 4 -1.33301 4 -4v-310c0 -2.66699 -1.33301 -4 -4 -4c-2 0 -3 1.33301 -3 4v306h-115v-231v-1c0 -16 3.16699 -31.167 9.5 -45.5s14.833 -26.833 25.5 -37.5s23.167 -19.167 37.5 -25.5s29.5 -9.5 45.5 -9.5
h437v350h-115v-306c0 -2.66699 -1.33301 -4 -4 -4s-4 1.33301 -4 4v310c0 2.66699 1.33301 4 4 4h122c2.66699 0 4 -1.33301 4 -4v-358c0 -2.66699 -1.33301 -4 -4 -4z" />
    <glyph glyph-name="I" unicode="I" 
d="M203 0h-122c-2.66699 -0 -4 1.33301 -4 4v714c0 2 1.33301 3 4 3h122c2.66699 0 4 -1 4 -3v-714c0 -2.66699 -1.33301 -4 -4 -4zM85 8h115v706h-115v-706z" />
    <glyph glyph-name="J" unicode="J" horiz-adv-x="537" 
d="M368 -17c-2.66699 0 -3.99902 1.33008 -3.99902 3.99707s1.33301 4 4 4c21.333 0 41.333 5.16699 60 15.5s35 24.333 49 42s25 38.334 33 62.001s12 49.167 12 76.5v517h-115v-517c0 -27.333 -4 -53.333 -12 -78s-19.667 -46.667 -35 -66s-32.833 -34.166 -52.5 -44.499
s-40.5 -15.5 -62.5 -15.5c-21.333 0 -41.833 5.16699 -61.5 15.5s-37.167 25.166 -52.5 44.499s-27 41.333 -35 66s-12 50.667 -12 78c0 2.66699 1.33301 4 4 4h122c2.66699 0 4 -1.33301 4 -4c0 -27.333 4.16699 -53.166 12.5 -77.499s20.166 -45.833 35.499 -64.5
c2 -2 1.66699 -3.66699 -1 -5c-1.33301 -2 -3 -2 -5 0c-15.333 19.333 -27.333 41.166 -36 65.499s-13 50.166 -13 77.499h-115c0 -26.667 4.16699 -51.667 12.5 -75s19.5 -43.666 33.5 -60.999s30.167 -31 48.5 -41s37.833 -15 58.5 -15c21.333 0 41.333 5.16699 60 15.5
s35 24.333 49 42s25 38.334 33 62.001s12 49.167 12 76.5v520c0 2.66699 1.33301 4 4 4h122c2.66699 0 4 -1.33301 4 -4v-520c0 -27.333 -4 -53.333 -12 -78s-19.667 -46.667 -35 -66s-32.833 -34.166 -52.5 -44.499s-40.167 -15.5 -61.5 -15.5z" />
    <glyph glyph-name="K" unicode="K" horiz-adv-x="685" 
d="M81 -17c-1.33301 0 -2 0.333008 -2 1c-2.66699 1.33301 -3 3 -1 5l241 290h1c0.666992 0 1 0.166992 1 0.5s0.333008 0.5 1 0.5s1.16699 -0.166992 1.5 -0.5s0.833008 -0.5 1.5 -0.5l225 -271h131l-292 351c-1.33301 1.33301 -1.33301 3 0 5l292 350h-132l-465 -560
c-0.666992 -0.666992 -2 -1 -4 -1c-2 0.666992 -3 2 -3 4v561c0 2 1.33301 3 4 3h122c2.66699 0 4 -1 4 -3v-335c0 -2 -1.33301 -3 -4 -3c-2 0 -3 1 -3 3v331h-115v-546l460 552c0 0.666992 1 1 3 1h141c2 0 3.33301 -0.666992 4 -2c0 -2 -0.333008 -3.33301 -1 -4
l-295 -354l296 -355c0.666992 -0.666992 0.666992 -2 0 -4c-1.33301 -1.33301 -2.33301 -2 -3 -2h-142c-0.666992 0 -1.16699 0.166992 -1.5 0.5s-0.833008 0.5 -1.5 0.5l-223 269l-238 -286c-0.666992 -0.666992 -1.66699 -1 -3 -1z" />
    <glyph glyph-name="L" unicode="L" horiz-adv-x="574" 
d="M292 0c-26.667 0 -48.665 15.998 -65.998 47.998c-8.66699 14.667 -15.167 30.834 -19.5 48.501s-6.5 36.167 -6.5 55.5v565h-115v-565c0 -18 2.16699 -35.833 6.5 -53.5s10.166 -33.167 17.499 -46.5c18 -29.333 38 -44 60 -44c2.66699 0 4 -1.33301 4 -4
s-1.33301 -4 -4 -4c-26.667 0 -48.667 16 -66 48c-8.66699 14.667 -15.167 30.834 -19.5 48.501s-6.5 36.167 -6.5 55.5v569c0 2 1.33301 3 4 3h123c2.66699 0 4 -1 4 -3v-569c0 -18 2.16699 -35.833 6.5 -53.5s10.166 -33.167 17.499 -46.5
c16.667 -29.333 36.667 -44 60 -44h191v100h-229c-2.66699 0 -4 1.33301 -4 4s1.33301 4 4 4h233c2 0 3 -1.33301 3 -4v-108c0 -2.66699 -1 -4 -3 -4h-195z" />
    <glyph glyph-name="M" unicode="M" horiz-adv-x="836" 
d="M202 0l-122.999 -0.00195312c-2.66699 0 -4 1.33301 -4 4v714c0 2 1 3 3 3c1.33301 0.666992 2.66602 0.333984 3.99902 -0.999023l282 -492c2 -2 1.66699 -3.66699 -1 -5c-2 -1.33301 -3.66699 -0.666016 -5 2.00098l-275 478v-695h115v421c0 2 1.33301 3 4 3s4 -1 4 -3
v-425c0 -2.66699 -1.33301 -4 -4 -4zM480.001 224.998l-281 490.998c-1.33301 2.66699 -1 4.33398 1 5.00098s3.66699 0.333984 5 -0.999023l282 -492v-2c0 -1.33301 -0.666992 -2 -2 -2h-2c-2 0 -3 0.333008 -3 1zM764.001 -0.00390625l-122.998 0.000976562
c-2.66699 0 -4 1.33301 -4 4v425c0 2 1.33301 3 4 3s4 -1 4 -3v-421h115v695l-274 -478c-0.666992 -2 -2.33398 -2.33301 -5.00098 -1c-2 2 -2.66699 3.33301 -2 4l282 492c1.33301 1.33301 2.66602 1.66602 3.99902 0.999023c2 0 3 -1 3 -3v-714
c0 -2.66699 -1.33301 -4 -4 -4zM422.003 329.997c-1.33301 0 -2 0.333984 -2 1.00098c-2.66699 1.33301 -3.33398 3 -2.00098 5l220 384c1.33301 1.33301 3 1.66602 5 0.999023c2.66699 -1.33301 3.33398 -3 2.00098 -5l-220 -384c-1.33301 -1.33301 -2.33301 -2 -3 -2z" />
    <glyph glyph-name="N" unicode="N" horiz-adv-x="695" 
d="M197 464c2.66699 0 4 -1.33301 4 -4v-456c0 -2.66699 -1.33301 -4 -4 -4h-122c-2.66699 -0 -4 1.33301 -4 4v632c0 2.66699 1.33301 4 4 4s4 -1.33301 4 -4v-628h115v452c0 2.66699 1 4 3 4zM655 721c2.66699 0 4 -1 4 -3v-714c0 -2.66699 -1.33301 -4 -4 -4
s-4 1.33301 -4 4v710h-115v-712v-1c0 -0.666992 -0.666992 -1 -2 -1h-3l-2 2l-457 714c-1.33301 0.666992 -1.33301 1.66699 0 3c0 1.33301 1 2 3 2h122c2 0 3.33301 -0.333008 4 -1l300 -469c1.33301 -1.33301 1 -3 -1 -5c-2 -1.33301 -4 -1 -6 1l-299 467h-113l447 -697
v701c0 2 1 3 3 3h123z" />
    <glyph glyph-name="O" unicode="O" horiz-adv-x="760" 
d="M446 -1c-38.667 0 -76.0029 9.99805 -112.003 29.998c-34 18.667 -64 45.667 -90 81c-27.333 36 -48 76.833 -62 122.5s-21 93.834 -21 144.501c0 35.333 3.5 69.666 10.5 102.999s17.5 65 31.5 95c27.333 58.667 64.333 104.334 111 137.001c1.33301 1.33301 3 1 5 -1
c1.33301 -2.66699 1 -4.66699 -1 -6c-22 -15.333 -42.167 -34.333 -60.5 -57s-34.166 -48 -47.499 -76c-13.333 -30 -23.666 -61.333 -30.999 -94s-11 -66.334 -11 -101.001c0 -50 7 -97.333 21 -142s34.333 -84.667 61 -120c26 -35.333 55.833 -62.166 89.5 -80.499
s69.167 -27.5 106.5 -27.5s72.666 9.16699 105.999 27.5s63.333 45.166 90 80.499c26 35.333 46 75.333 60 120s21 92 21 142s-7 97.333 -21 142s-34 84.667 -60 120c-26.667 34.667 -56.667 61.334 -90 80.001s-68.666 28 -105.999 28c-2.66699 0 -4 1.33301 -4 4
s1.33301 4 4 4c19.333 0 38.333 -2.66699 57 -8s36.667 -12.666 54 -21.999c34 -19.333 64.333 -46.666 91 -81.999c27.333 -36 48 -76.833 62 -122.5s21 -93.5 21 -143.5c0 -50.667 -7 -98.834 -21 -144.501s-34.667 -86.5 -62 -122.5
c-25.333 -34.667 -55.666 -61.667 -90.999 -81c-35.333 -20 -72.333 -30 -111 -30zM322.997 -1.00195c-39.333 0 -76.332 9.99707 -110.999 29.9971c-35.333 19.333 -65.666 46.333 -90.999 81c-26.667 36 -47.167 76.833 -61.5 122.5s-21.5 93.834 -21.5 144.501
c0 50 7.16699 97.833 21.5 143.5s34.833 86.5 61.5 122.5c26.667 35.333 57 62.666 91 81.999c17.333 9.33301 35.333 16.666 54 21.999s37.667 8 57 8s38.5 -2.66699 57.5 -8s37.167 -12.666 54.5 -21.999c33.333 -18.667 63.333 -46 90 -82
c27.333 -36 48.166 -76.833 62.499 -122.5s21.5 -93.5 21.5 -143.5c0 -71.333 -14.333 -137.666 -43 -198.999c-27.333 -58 -64.666 -103.667 -111.999 -137c-2 -2 -3.66699 -1.66699 -5 1s-1 4.33398 1 5.00098c45.333 31.333 81.666 76 108.999 134
c13.333 30 23.666 61.333 30.999 94s11 66.667 11 102c0 50 -7 97.333 -21 142s-34.333 84.667 -61 120c-26 34.667 -55.833 61.334 -89.5 80.001s-69.167 28 -106.5 28s-72.666 -9.33301 -105.999 -28s-63.333 -45.334 -90 -80.001c-26 -35.333 -46 -75.333 -60 -120
s-21 -92 -21 -142s7 -97.333 21 -142s34 -84.667 60 -120c26.667 -35.333 56.667 -62.166 90 -80.499s68.666 -27.5 105.999 -27.5c2.66699 0 4 -1.33301 4 -4s-1.33301 -4 -4 -4z" />
    <glyph glyph-name="P" unicode="P" horiz-adv-x="667" 
d="M559 656c28.667 -26.667 50.498 -56.666 65.498 -89.999s22.5 -68.666 22.5 -105.999c0 -38 -7.66699 -73.833 -23 -107.5s-37.666 -63.834 -66.999 -90.501s-62.5 -47 -99.5 -61s-76.167 -21 -117.5 -21c-20.667 0 -41.334 2 -62.001 6
c-27.333 5.33301 -52.666 13.333 -75.999 24c-1.33301 0.666992 -2 2 -2 4v487c0 2.66699 1 4 3 4c2.66699 0 4 -1.33301 4 -4v-485c24 -10.667 48.333 -18.334 73 -23.001c10 -1.33301 20 -2.5 30 -3.5s20 -1.5 30 -1.5c40 0 78.333 6.83301 115 20.5s69 33.5 97 59.5
c28.667 25.333 50.5 54.5 65.5 87.5s22.5 67.833 22.5 104.5c0 36 -7.33301 70.333 -22 103s-36 61.667 -64 87s-59.667 45 -95 59s-72.666 21.667 -111.999 23c-2.66699 0 -4 1.33301 -4 4c0 2 1.33301 3 4 3c40 -0.666992 78.333 -8.16699 115 -22.5s69 -34.5 97 -60.5z
M202.998 175.001c2.66699 0 3.99902 -1.33398 3.99902 -4.00098v-166c0 -2.66699 -1.33301 -4 -4 -4h-122c-2.66699 0 -4 1.33301 -4 4v701c0 2 0.666992 3 2 3c38.667 18 80 28 124 30c3.33301 0 6 0.166992 8 0.5s4.33301 0.5 7 0.5c21.333 0 42 -2 62 -6
c34 -6.66699 66 -18.167 96 -34.5s56.333 -36.833 79 -61.5c22 -25.333 39 -52.666 51 -81.999c12.667 -30 19 -62 19 -96c0 -55.333 -16.333 -106 -49 -152c-31.333 -44.667 -73.333 -78.334 -126 -101.001h-2c-1.33301 0 -2.66602 0.666992 -3.99902 2
c0 2 0.666992 3.66699 2 5c50.667 22 92 55 124 99c31.333 44.667 47 93.667 47 147c0 32 -6 63 -18 93c-12.667 30.667 -29.334 57.334 -50.001 80.001c-21.333 24 -46.666 44 -75.999 60s-61 27 -95 33c-19.333 4 -39.333 6 -60 6h-14c-41.333 -2 -81 -11.667 -119 -29
v-694h115v162c0 2.66699 1 4 3 4z" />
    <glyph glyph-name="Q" unicode="Q" horiz-adv-x="812" 
d="M363 27l-1.99512 -0.00292969c-59.333 30.667 -107.666 78.334 -144.999 143.001c-17.333 31.333 -30.666 64.5 -39.999 99.5s-14 70.5 -14 106.5c0 46.667 7.83301 92.667 23.5 138s38.167 86 67.5 122c31.333 38 66.666 67.167 105.999 87.5s81 30.5 125 30.5
s85.833 -10.167 125.5 -30.5s74.834 -49.5 105.501 -87.5c29.333 -36 52 -76.667 68 -122s24 -91.333 24 -138c0 -44 -7 -87.333 -21 -130c-13.333 -40.667 -33 -79 -59 -115c-0.666992 -2 -2.33398 -2.33301 -5.00098 -1c-2 2 -2.33301 4 -1 6
c12.667 16.667 23.667 34.334 33 53.001s17.666 38.334 24.999 59.001c13.333 43.333 20 86 20 128c0 46 -7.83301 91.167 -23.5 135.5s-37.834 84.166 -66.501 119.499c-30 37.333 -64.333 65.833 -103 85.5s-79.334 29.5 -122.001 29.5s-83.334 -9.83301 -122.001 -29.5
s-73 -48.167 -103 -85.5c-28.667 -35.333 -50.834 -75.166 -66.501 -119.499s-23.5 -89.5 -23.5 -135.5c0 -35.333 4.66699 -70.166 14 -104.499s22.666 -66.833 39.999 -97.5c36.667 -64 84 -110.667 142 -140c2 -0.666992 2.33301 -2.33398 1 -5.00098
c0 -1.33301 -1 -2 -3 -2zM643.005 200.997l-2.00391 -0.00195312c-1.33301 1.33301 -1.66602 3 -0.999023 5c24.667 55.333 37 112 37 170c0 35.333 -4.5 69.833 -13.5 103.5s-22.167 65.834 -39.5 96.501c-35.333 64 -82 110.667 -140 140
c-1.33301 1.33301 -1.66602 3 -0.999023 5c1.33301 2.66699 3 3.33398 5 2.00098c58.667 -30.667 106.334 -78.334 143.001 -143.001c17.333 -31.333 30.5 -64.166 39.5 -98.499s13.5 -69.5 13.5 -105.5c0 -60 -12.333 -117.667 -37 -173
c-1.33301 -1.33301 -2.66602 -2 -3.99902 -2zM735.001 -63.0049l-3.00293 -0.00195312l-111 98c-39.333 -22.667 -81.666 -35 -126.999 -37c-2.66699 0 -4 1.33301 -4 4s1.33301 4 4 4c22 0.666992 43.5 4 64.5 10s41.167 14.667 60.5 26c1.33301 1.33301 3 1.33301 5 0
l110 -96l64 72l-170 148c-29.333 -50 -66 -89.667 -110 -119c-47.333 -32.667 -99.333 -49 -156 -49c-44 0 -85.667 10.167 -125 30.5s-74.666 49.5 -105.999 87.5c-29.333 36 -52 76.5 -68 121.5s-24 91.167 -24 138.5c0 46.667 8 92.667 24 138s38.667 86 68 122
c30.667 38 65.834 67.167 105.501 87.5s81.5 30.5 125.5 30.5c2.66699 0 4 -1.33301 4 -4s-1.33301 -4 -4 -4c-42.667 0 -83.334 -9.83301 -122.001 -29.5s-73 -48.167 -103 -85.5c-28.667 -35.333 -50.834 -75.166 -66.501 -119.499s-23.5 -89.5 -23.5 -135.5
s7.83301 -91.167 23.5 -135.5s37.834 -84.166 66.501 -119.499c30 -37.333 64.333 -65.833 103 -85.5s79.334 -29.5 122.001 -29.5c54 0 104.667 15.667 152 47c44 30 80.333 70.333 109 121c1.33301 1.33301 2.33301 2 3 2c1.33301 0 2.33301 -0.333008 3 -1l177 -153
c0.666992 -2 0.666992 -4 0 -6l-68 -78c-0.666992 -0.666992 -1.66699 -1 -3 -1z" />
    <glyph glyph-name="R" unicode="R" horiz-adv-x="704" 
d="M647 6l-0.00292969 -4.00098c-1.33301 -1.33301 -2.66602 -2 -3.99902 -2h-138c-0.666992 0 -1.66699 0.666992 -3 2l-117 180c-16 -2 -31 -3 -45 -3c-20.667 0 -41.334 2 -62.001 6c-27.333 5.33301 -52.666 13.333 -75.999 24c-1.33301 0.666992 -2 2 -2 4v487
c0 2.66699 1 4 3 4c2.66699 0 4 -1.33301 4 -4v-485c24 -10.667 48.333 -18.334 73 -23.001c10 -1.33301 20 -2.5 30 -3.5s20 -1.5 30 -1.5c14 0 29.667 1 47 3c2 0 3 -0.333008 3 -1l117 -181h129l-139 214v3c0 0.666992 0.666992 1.66699 2 3
c42.667 24.667 76.667 57 102 97c12.667 20.667 22.334 42.334 29.001 65.001s10 45.667 10 69c0 36 -7.33301 70.333 -22 103s-36 61.667 -64 87s-59.667 45 -95 59s-72.666 21.667 -111.999 23c-2.66699 0 -4 1.33301 -4 4c0 2 1.33301 3 4 3
c40 -0.666992 78.333 -8.16699 115 -22.5s69 -34.5 97 -60.5c28.667 -26.667 50.5 -56.667 65.5 -90s22.5 -68.666 22.5 -105.999c0 -50.667 -13.333 -96.667 -40 -138c-12 -20 -26.5 -38.167 -43.5 -54.5s-36.167 -30.833 -57.5 -43.5zM202.997 173.999
c2.66699 0 3.99902 -1.33398 3.99902 -4.00098v-166c0 -2.66699 -1.33301 -4 -4 -4h-122c-2.66699 0 -4 1.33301 -4 4v701c0 2 0.666992 3 2 3c38.667 18 80 28 124 30c3.33301 0 6 0.166992 8 0.5s4.33301 0.5 7 0.5c21.333 0 42 -2 62 -6c34 -6.66699 66 -18.167 96 -34.5
s56.333 -36.833 79 -61.5c22 -25.333 39 -52.666 51 -81.999c12.667 -30 19 -62 19 -96c0 -55.333 -16.333 -106 -49 -152c-31.333 -44.667 -73.333 -78.334 -126 -101.001h-2c-1.33301 0 -2.66602 0.666992 -3.99902 2c0 2 0.666992 3.66699 2 5c50.667 22 92 55 124 99
c31.333 44.667 47 93.667 47 147c0 32 -6 63 -18 93c-12.667 30.667 -29.334 57.334 -50.001 80.001c-21.333 24 -46.666 44 -75.999 60s-61 27 -95 33c-19.333 4 -39.333 6 -60 6h-14c-41.333 -2 -81 -11.667 -119 -29v-694h115v162c0 2.66699 1 4 3 4z" />
    <glyph glyph-name="S" unicode="S" horiz-adv-x="648" 
d="M335 1c-41.333 0 -80.002 5.00391 -116.002 15.0039c-38 10 -69.667 25.333 -95 46c-27.333 21.333 -49 48.333 -65 81c-8.66699 16.667 -15 34.667 -19 54s-6.33301 40 -7 62c0 0.666992 0.166992 1.16699 0.5 1.5s0.5 0.833008 0.5 1.5
c0.666992 0.666992 1.66699 1 3 1h125c2.66699 0 4 -1.33301 4 -4c0 -27.333 4.33301 -50 13 -68s21.334 -33.333 38.001 -46c16 -12 34.667 -21 56 -27c22.667 -5.33301 46 -8 70 -8c27.333 0 50 3 68 9c20 7.33301 35.333 15.333 46 24
c11.333 9.33301 19.666 20.333 24.999 33c5.33301 14 8 26.667 8 38c0 2.66699 1.33301 4 4 4c2 0 3 -1.33301 3 -4c0 -14.667 -2.66699 -28.334 -8 -41.001c-2.66699 -6.66699 -6.33398 -13 -11.001 -19s-10 -11.667 -16 -17c-11.333 -9.33301 -27.333 -17.666 -48 -24.999
c-10 -3.33301 -21 -5.83301 -33 -7.5s-24.667 -2.5 -38 -2.5c-26 0 -50 3 -72 9s-41.333 15.333 -58 28c-9.33301 6 -17.166 13.167 -23.499 21.5s-12.166 17.5 -17.499 27.5c-9.33301 18.667 -14 41 -14 67h-117c1.33301 -42 9.33301 -78.333 24 -109
c16 -31.333 37 -57.333 63 -78c25.333 -19.333 56.333 -34.333 93 -45c34.667 -10 72.667 -15 114 -15c36 0 70.333 4.33301 103 13c26 6 45.5 12.333 58.5 19s23.167 13 30.5 19c19.333 16 33.666 34 42.999 54c8.66699 20.667 10.667 41.667 6 63
c-7.33301 33.333 -30.833 62.666 -70.5 87.999s-93.167 45.666 -160.5 60.999l-39.5 10.5c-19 5 -39 10.667 -60 17l-60.5 19c-19.333 6.33301 -33.333 12.166 -42 17.499c-20 12.667 -36.333 27.667 -49 45c-12 16 -20.667 33.333 -26 52c-5.33301 19.333 -8 38 -8 56
c0 2.66699 1.33301 4 4 4s4 -1.33301 4 -4c0 -9.33301 0.5 -18.5 1.5 -27.5s2.83301 -17.833 5.5 -26.5c5.33301 -18 13.666 -34.667 24.999 -50c12.667 -16.667 28.334 -30.667 47.001 -42c8 -4.66699 21.167 -10.334 39.5 -17.001s37.833 -13.167 58.5 -19.5
s40.5 -12 59.5 -17s33.167 -8.5 42.5 -10.5c72 -16 129 -38.333 171 -67c36 -26 58 -55 66 -87c4.66699 -22 2.33398 -44.667 -6.99902 -68c-4.66699 -10.667 -10.834 -20.667 -18.501 -30s-16.5 -18.333 -26.5 -27c-13.333 -11.333 -28.166 -19.833 -44.499 -25.5
s-32.166 -10.5 -47.499 -14.5c-35.333 -8 -70.333 -12 -105 -12zM617.998 224.004c-2 0 -2.99707 1.3291 -2.99707 3.99609c0 18.667 -3 37 -9 55c-4.66699 16.667 -13 33.667 -25 51c-11.333 16.667 -25.666 31 -42.999 43c-18 12.667 -38 22.334 -60 29.001
c-4.66699 1.33301 -10.834 3 -18.501 5s-16.834 4.66699 -27.501 8l-31.5 8c-11 2.66699 -22.5 5.66699 -34.5 9l-33 9l-29 8l-14.5 3.5c-4.33301 1 -7.83301 2.16699 -10.5 3.5c-1.33301 0 -2.5 0.166992 -3.5 0.5s-1.83301 0.5 -2.5 0.5
c-58.667 16.667 -102.667 36.667 -132 60c-26.667 20.667 -42.667 44.334 -48 71.001c-4 20.667 -0.333008 42.334 11 65.001c8.66699 18 22 33.667 40 47c22 17.333 50.333 30.333 85 39c15.333 4 31.166 7.16699 47.499 9.5s32.5 3.5 48.5 3.5
c37.333 0 72.666 -5 105.999 -15s62.666 -24.667 87.999 -44c26 -20 46.333 -44.333 61 -73s22 -62 22 -100c0 -2.66699 -1.33301 -4 -4 -4h-124c-2.66699 0 -4 1.33301 -4 4c-3.33301 44 -18.666 75.333 -45.999 94c-26.667 18.667 -61.334 28 -104.001 28
c-7.33301 0 -14.666 -0.333008 -21.999 -1s-14.666 -1.66699 -21.999 -3c-15.333 -3.33301 -29 -8.33301 -41 -15c-13.333 -8 -23.666 -17 -30.999 -27c-7.33301 -12.667 -11 -27 -11 -43c0 -2.66699 -1.33301 -4 -4 -4s-4 1.33301 -4 4c0 18.667 4.33301 34.334 13 47.001
c8.66699 12 19.667 22 33 30c13.333 7.33301 27.666 12.333 42.999 15c8 1.33301 15.833 2.5 23.5 3.5s15.167 1.5 22.5 1.5c43.333 0 79.666 -10 108.999 -30c28 -19.333 44 -51.333 48 -96h118c-1.33301 36 -8.66602 67 -21.999 93c-14 27.333 -33.333 50.666 -58 69.999
c-24 18 -52.667 32.333 -86 43c-33.333 9.33301 -68 14 -104 14c-32.667 0 -64 -4.33301 -94 -13c-34 -8.66699 -61.667 -21 -83 -37c-14.667 -11.333 -27.167 -26.5 -37.5 -45.5s-13.5 -38.833 -9.5 -59.5c3.33301 -16.667 10.833 -31.5 22.5 -44.5s25.667 -24.5 42 -34.5
s34.166 -18.833 53.499 -26.5s38 -13.834 56 -18.501l6 -2c2.66699 -0.666992 6.16699 -1.66699 10.5 -3s9.16602 -2.66602 14.499 -3.99902c9.33301 -2.66699 19 -5.16699 29 -7.5s21 -5.16602 33 -8.49902c24 -7.33301 46 -13.333 66 -18l27.5 -7l19.5 -5
c24.667 -8.66699 45.334 -19 62.001 -31c17.333 -13.333 32 -28 44 -44c12 -17.333 21 -35.333 27 -54c5.33301 -20 8 -39 8 -57c0 -2.66699 -1.33301 -4 -4 -4z" />
    <glyph glyph-name="T" unicode="T" horiz-adv-x="593" 
d="M348 3h-123c-2.66699 0 -4 1.33301 -4 4v566c0 18 -2 35.833 -6 53.5s-10 33.167 -18 46.5c-16.667 29.333 -36.667 44 -60 44h-129v-100h167c2.66699 0 4 -1.33301 4 -4s-1.33301 -4 -4 -4h-171c-2.66699 0 -4 1.33301 -4 4v108c-0 2 1.33301 3 4 3h133
c26.667 0 49 -15.667 67 -47c16.667 -30 25 -64.667 25 -104v-562h115v602c0 2.66699 1.33301 4 4 4h213v100h-332c-2.66699 0 -4 1.33301 -4 4c0 2 1.33301 3 4 3h336c2.66699 0 4 -1 4 -3v-108c0 -2.66699 -1.33301 -4 -4 -4h-213v-602c0 -2.66699 -1.33301 -4 -4 -4z" />
    <glyph glyph-name="U" unicode="U" horiz-adv-x="696" 
d="M414 0c-31.333 0 -60.667 9.16504 -88 27.498s-51.333 44.5 -72 78.5s-36.334 73.667 -47.001 119s-16 94 -16 146v360h-115v-360c0 -51.333 5.33301 -99.333 16 -144s26 -83.667 46 -117c19.333 -33.333 42.333 -58.666 69 -75.999s55 -26 85 -26
c2.66699 0 4 -1.33301 4 -4s-1.33301 -4 -4 -4c-32 0 -61.667 9.16699 -89 27.5s-51.333 44.5 -72 78.5c-20 34 -35.5 73.667 -46.5 119s-16.5 94 -16.5 146v364c0 2 1.33301 3 4 3h122c2.66699 0 4 -1 4 -3v-364c0 -51.333 5.33301 -99.333 16 -144s26 -83.667 46 -117
s43.167 -58.666 69.5 -75.999s54.5 -26 84.5 -26c30.667 0 59.334 8.66699 86.001 26c26.667 18 49.667 43.333 69 76c20 33.333 35.333 72.333 46 117s16 92.667 16 144v360h-115v-360c0 -71.333 -9.33301 -133 -28 -185c-8.66699 -23.333 -19 -45.333 -31 -66
s-26.667 -40.334 -44 -59.001c-2 -3.33301 -3.66699 -3.33301 -5 0c-2 0.666992 -2.33301 2.33398 -1 5.00098c32.667 35.333 57.334 76.333 74.001 123c18 52 27 112.667 27 182v364c0 2 1.33301 3 4 3h122c2.66699 0 4 -1 4 -3v-364c0 -52 -5.33301 -100.667 -16 -146
s-26.334 -85 -47.001 -119s-44.667 -60.167 -72 -78.5s-57 -27.5 -89 -27.5z" />
    <glyph glyph-name="V" unicode="V" horiz-adv-x="623" 
d="M370 -1h-0.998047c-2.66699 1.33301 -3.33398 3 -2.00098 5l247 709h-120l-248 -711c0 -2 -1 -3 -3 -3s-3.33301 1 -4 3l-249 713c0 2 0.333008 3.33301 1 4s1.66699 1 3 1h128c2 0 3 -0.666992 3 -2l159 -457c1.33301 -2 0.666016 -3.66699 -2.00098 -5
c-2.66699 0 -4.33398 1 -5.00098 3l-158 454h-120l244 -698l245 703c0 1.33301 1 2 3 2h128c1.33301 0 2.33301 -0.333008 3 -1s1 -2 1 -4l-249 -713c-1.33301 -2 -2.66602 -3 -3.99902 -3z" />
    <glyph glyph-name="W" unicode="W" horiz-adv-x="954" 
d="M389 1l-127.002 -0.00195312c-2 0 -3.33301 1 -4 3l-249 713c0 2 0.333008 3.33301 1 4s1.66699 1 3 1h128c2 0 3 -0.666992 3 -2l181 -520l94 269c1.33301 2.66699 3 3.33398 5 2.00098c2 0 3 -1.66699 3 -5l-98 -279c0 -2 -1.33301 -3 -4 -3c-2 0 -3 1 -3 3l-184 528
h-120l246 -706h123l160 460c1.33301 2.66699 3 3.33398 5 2.00098c2.66699 0 3.33398 -1.66699 2.00098 -5l-161 -462c-1.33301 -2 -2.66602 -3 -3.99902 -3zM711.998 0.998047l-128.001 0.00195312c-2 0 -3 1 -3 3l-71 202c-1.33301 2 -0.666016 3.66699 2.00098 5
c3.33301 1.33301 5 0.666016 5 -2.00098l70 -200h122l246 706h-119l-184 -528c-1.33301 -2 -2.66602 -3 -3.99902 -3c-2 0 -3.33301 1 -4 3l-97 279c-2 3.33301 -1.33301 5 2 5c2 1.33301 3.66699 0.666016 5 -2.00098l94 -269l181 520c1.33301 1.33301 2.66602 2 3.99902 2
h127c2 0 3.33301 -0.333008 4 -1v-4l-249 -713c0 -2 -1 -3 -3 -3z" />
    <glyph glyph-name="X" unicode="X" horiz-adv-x="648" 
d="M395 356c-0.666992 0 -1.16797 0.166992 -1.50098 0.5s-0.833008 0.5 -1.5 0.5c-2 2 -2.33301 3.66699 -1 5l242 352h-135l-172 -251c-2 -2 -4 -2.33301 -6 -1c-1.33301 1.33301 -1.66602 3 -0.999023 5l174 253c0.666992 0.666992 1.66699 1 3 1h144
c2 0 3 -0.666992 3 -2c0.666992 -0.666992 0.666992 -2 0 -4l-245 -357c-1.33301 -1.33301 -2.33301 -2 -3 -2zM639.999 0l-144 0.000976562c-0.666992 0 -1.66699 0.666992 -3 2l-134 194c-0.666992 2 -0.333984 3.66699 0.999023 5c2.66699 1.33301 4.66699 1 6 -1
l132 -192h135l-486 706h-135l314 -455v-5l-174 -252c-1.33301 -1.33301 -2.33301 -2 -3 -2h-144c-2 0 -3 0.666992 -3 2c-1.33301 1.33301 -1.33301 2.66602 0 3.99902l217 315c0.666992 2 2.33398 2.33301 5.00098 1c2 -0.666992 2.33301 -2.33398 1 -5.00098l-213 -309
h135l171 248l-316 459c-0.666992 2 -0.666992 3.33301 0 4c0 1.33301 1 2 3 2h144c1.33301 0 2.33301 -0.333008 3 -1l491 -714c1.33301 -1.33301 1.33301 -2.66602 0 -3.99902c0 -1.33301 -1 -2 -3 -2z" />
    <glyph glyph-name="Y" unicode="Y" horiz-adv-x="648" 
d="M371 1l-124.999 -0.000976562c-2.66699 0 -4 1.33301 -4 4v189l-241 523c0 2 0.333008 3.33301 1 4c0 0.666992 1 1 3 1h137c2 0 3 -0.666992 3 -2l226 -486l222 481h-130l-128 -278c-1.33301 -3.33301 -3 -4 -5 -2c-2.66699 1.33301 -3.33398 3 -2.00098 5l129 280
c0.666992 1.33301 2 2 4 2h138c1.33301 0 2.33301 -0.333008 3 -1c1.33301 -1.33301 1.33301 -2.66602 0 -3.99902l-228 -493c0 -1.33301 -1 -2 -3 -2s-3.33301 0.666992 -4 2l-228 491h-128l239 -519v-1v-186h117v160c0 2.66699 1.33301 4 4 4s4 -1.33301 4 -4v-164
c0 -2.66699 -1.33301 -4 -4 -4z" />
    <glyph glyph-name="Z" unicode="Z" horiz-adv-x="630" 
d="M27 0l-2 0.000976562c-2 2 -2.33301 4 -1 6l388 554c17.333 24.667 25.833 46 25.5 64s-3.16602 32.333 -8.49902 43c-8 15.333 -20.5 28 -37.5 38s-35.167 15 -54.5 15h-269v-100h297c2 0 3 -1.33301 3 -4c0 -2 -1 -3 -3 -3h-301c-2.66699 0 -4 1 -4 3v108
c0 2.66699 1.33301 4 4 4h273c20 0 39.167 -5.33301 57.5 -16s32.166 -24.334 41.499 -41.001c8 -16 11 -33.333 9 -52c-3.33301 -20.667 -12.333 -42 -27 -64l-388 -554c-0.666992 -0.666992 -1.66699 -1 -3 -1zM597 0.000976562l-422 0.000976562
c-0.666992 0 -1.66699 0.666992 -3 2s-1.33301 2.66602 0 3.99902l393 554c17.333 24.667 26 45.834 26 63.501s-2.66699 32.167 -8 43.5c-8.66699 15.333 -21.5 28 -38.5 38s-35.167 15 -54.5 15c-2.66699 0 -4 1.33301 -4 4s1.33301 4 4 4
c20.667 0 40.167 -5.33301 58.5 -16s31.833 -24.334 40.5 -41.001c9.33301 -16 12.333 -33.333 9 -52c-2 -20 -10.667 -41.333 -26 -64l-389 -548h410v100h-284c-2.66699 0 -4 1.33301 -4 4s1.33301 4 4 4h288c2 0 3 -1.33301 3 -4v-107c0 -2.66699 -1 -4 -3 -4z" />
    </font>
</defs>
</svg>
